<svg width="24" height="25" viewBox="0 0 24 25" fill="none" xmlns="http://www.w3.org/2000/svg">
<path fill-rule="evenodd" clip-rule="evenodd" d="M12 4.25959C7.48131 4.25959 3.81818 7.92271 3.81818 12.4414C3.81818 16.9601 7.48131 20.6232 12 20.6232C16.5187 20.6232 20.1818 16.9601 20.1818 12.4414C20.1818 7.92271 16.5187 4.25959 12 4.25959ZM2 12.4414C2 6.91856 6.47715 2.44141 12 2.44141C17.5228 2.44141 22 6.91856 22 12.4414C22 17.9643 17.5228 22.4414 12 22.4414C6.47715 22.4414 2 17.9643 2 12.4414ZM11.0909 8.80504C11.0909 8.30297 11.4979 7.89595 12 7.89595H12.0091C12.5112 7.89595 12.9182 8.30297 12.9182 8.80504C12.9182 9.30712 12.5112 9.71413 12.0091 9.71413H12C11.4979 9.71413 11.0909 9.30712 11.0909 8.80504ZM12 11.5323C12.5021 11.5323 12.9091 11.9393 12.9091 12.4414V16.0778C12.9091 16.5798 12.5021 16.9869 12 16.9869C11.4979 16.9869 11.0909 16.5798 11.0909 16.0778V12.4414C11.0909 11.9393 11.4979 11.5323 12 11.5323Z" fill="#515151"/>
</svg>
