<svg width="20" height="21" viewBox="0 0 20 21" fill="none" xmlns="http://www.w3.org/2000/svg">
<path d="M11.1749 10.4416L16.4249 5.19989C16.5818 5.04297 16.6699 4.83015 16.6699 4.60823C16.6699 4.38631 16.5818 4.17348 16.4249 4.01656C16.2679 3.85964 16.0551 3.77148 15.8332 3.77148C15.6113 3.77148 15.3985 3.85964 15.2415 4.01656L9.99987 9.26656L4.7582 4.01656C4.60128 3.85964 4.38845 3.77148 4.16653 3.77148C3.94462 3.77148 3.73179 3.85964 3.57487 4.01656C3.41795 4.17348 3.32979 4.38631 3.32979 4.60823C3.32979 4.83015 3.41795 5.04297 3.57487 5.19989L8.82487 10.4416L3.57487 15.6832C3.49676 15.7607 3.43477 15.8529 3.39246 15.9544C3.35015 16.056 3.32837 16.1649 3.32837 16.2749C3.32837 16.3849 3.35015 16.4938 3.39246 16.5954C3.43477 16.6969 3.49676 16.7891 3.57487 16.8666C3.65234 16.9447 3.7445 17.0067 3.84605 17.049C3.9476 17.0913 4.05652 17.1131 4.16653 17.1131C4.27654 17.1131 4.38547 17.0913 4.48702 17.049C4.58856 17.0067 4.68073 16.9447 4.7582 16.8666L9.99987 11.6166L15.2415 16.8666C15.319 16.9447 15.4112 17.0067 15.5127 17.049C15.6143 17.0913 15.7232 17.1131 15.8332 17.1131C15.9432 17.1131 16.0521 17.0913 16.1537 17.049C16.2552 17.0067 16.3474 16.9447 16.4249 16.8666C16.503 16.7891 16.565 16.6969 16.6073 16.5954C16.6496 16.4938 16.6714 16.3849 16.6714 16.2749C16.6714 16.1649 16.6496 16.056 16.6073 15.9544C16.565 15.8529 16.503 15.7607 16.4249 15.6832L11.1749 10.4416Z" fill="#393939"/>
</svg>
