<svg width="20" height="20" viewBox="0 0 20 20" fill="none" xmlns="http://www.w3.org/2000/svg">
<g id="Icon Library">
<g id="Vector">
<path d="M1.6665 5.00033C1.6665 4.54009 2.0396 4.16699 2.49984 4.16699H17.4998C17.9601 4.16699 18.3332 4.54009 18.3332 5.00033C18.3332 5.46056 17.9601 5.83366 17.4998 5.83366L2.49984 5.83366C2.0396 5.83366 1.6665 5.46056 1.6665 5.00033Z" fill="#FBFBFB"/>
<path d="M1.6665 10.0003C1.6665 9.54009 2.0396 9.16699 2.49984 9.16699L17.4998 9.16699C17.9601 9.16699 18.3332 9.54009 18.3332 10.0003C18.3332 10.4606 17.9601 10.8337 17.4998 10.8337L2.49984 10.8337C2.0396 10.8337 1.6665 10.4606 1.6665 10.0003Z" fill="#FBFBFB"/>
<path d="M2.49984 14.167C2.0396 14.167 1.6665 14.5401 1.6665 15.0003C1.6665 15.4606 2.0396 15.8337 2.49984 15.8337L17.4998 15.8337C17.9601 15.8337 18.3332 15.4606 18.3332 15.0003C18.3332 14.5401 17.9601 14.167 17.4998 14.167L2.49984 14.167Z" fill="#FBFBFB"/>
</g>
</g>
</svg>
