<svg width="20" height="20" viewBox="0 0 20 20" fill="none" xmlns="http://www.w3.org/2000/svg">
<path d="M11.175 9.99991L16.425 4.75824C16.5819 4.60132 16.67 4.3885 16.67 4.16658C16.67 3.94466 16.5819 3.73183 16.425 3.57491C16.268 3.41799 16.0552 3.32983 15.8333 3.32983C15.6114 3.32983 15.3985 3.41799 15.2416 3.57491L9.99996 8.82491L4.75829 3.57491C4.60137 3.41799 4.38854 3.32983 4.16663 3.32983C3.94471 3.32983 3.73188 3.41799 3.57496 3.57491C3.41804 3.73183 3.32988 3.94466 3.32988 4.16658C3.32988 4.3885 3.41804 4.60132 3.57496 4.75824L8.82496 9.99991L3.57496 15.2416C3.49685 15.319 3.43486 15.4112 3.39255 15.5128C3.35024 15.6143 3.32846 15.7232 3.32846 15.8332C3.32846 15.9433 3.35024 16.0522 3.39255 16.1537C3.43486 16.2553 3.49685 16.3474 3.57496 16.4249C3.65243 16.503 3.7446 16.565 3.84615 16.6073C3.94769 16.6496 4.05662 16.6714 4.16663 16.6714C4.27664 16.6714 4.38556 16.6496 4.48711 16.6073C4.58866 16.565 4.68082 16.503 4.75829 16.4249L9.99996 11.1749L15.2416 16.4249C15.3191 16.503 15.4113 16.565 15.5128 16.6073C15.6144 16.6496 15.7233 16.6714 15.8333 16.6714C15.9433 16.6714 16.0522 16.6496 16.1538 16.6073C16.2553 16.565 16.3475 16.503 16.425 16.4249C16.5031 16.3474 16.5651 16.2553 16.6074 16.1537C16.6497 16.0522 16.6715 15.9433 16.6715 15.8332C16.6715 15.7232 16.6497 15.6143 16.6074 15.5128C16.5651 15.4112 16.5031 15.319 16.425 15.2416L11.175 9.99991Z" fill="#FBFBFB"/>
</svg>
