<svg width="33" height="32" viewBox="0 0 33 32" fill="none" xmlns="http://www.w3.org/2000/svg">
<rect width="32" height="32" transform="translate(0.387207)" fill="#E55828"/>
<path d="M4.72542 20C4.4539 20 4.31814 19.8545 4.31814 19.5636V12.0929C4.31814 11.802 4.4539 11.6565 4.72542 11.6565H6.90148C8.29788 11.6565 9.26567 11.8834 9.80483 12.3372C10.3479 12.7911 10.6194 13.435 10.6194 14.2689C10.6194 15.1029 10.3479 15.7468 9.80483 16.2006C9.26567 16.6545 8.29788 16.8814 6.90148 16.8814H6.0171V19.5636C6.0171 19.8545 5.88133 20 5.60981 20H4.72542ZM6.0171 15.4617H6.89566C7.67144 15.4617 8.19897 15.3705 8.47825 15.1882C8.75753 15.002 8.89717 14.6956 8.89717 14.2689C8.89717 13.8423 8.75753 13.5378 8.47825 13.3555C8.19897 13.1693 7.67144 13.0762 6.89566 13.0762H6.0171V15.4617ZM12.4522 20C12.1807 20 12.0449 19.8545 12.0449 19.5636V12.0929C12.0449 11.802 12.1807 11.6565 12.4522 11.6565H15.1461C16.3446 11.6565 17.2193 11.8427 17.7701 12.2151C18.3209 12.5836 18.5963 13.1848 18.5963 14.0187C18.5963 14.6394 18.3733 15.1339 17.9272 15.5024C17.4812 15.8709 16.9148 16.1153 16.2283 16.2355V16.2472C16.6007 16.3868 16.8819 16.5808 17.0719 16.829C17.262 17.0773 17.4172 17.2945 17.5374 17.4807L18.8174 19.4996C19.0308 19.8332 18.9571 20 18.5963 20H17.5839C17.3706 20 17.1961 19.8856 17.0603 19.6567L15.885 17.6959C15.757 17.4865 15.5223 17.2576 15.181 17.0094C14.8435 16.7572 14.508 16.6312 14.1744 16.6312H13.7438V19.5636C13.7438 19.8545 13.6081 20 13.3366 20H12.4522ZM13.7438 15.1882H14.7853C15.5611 15.1882 16.1119 15.101 16.4377 14.9264C16.7674 14.748 16.9323 14.4668 16.9323 14.0828C16.9323 13.6638 16.7733 13.3923 16.4552 13.2682C16.141 13.1402 15.6775 13.0762 15.0646 13.0762H13.7438V15.1882ZM19.9229 15.8283C19.9229 14.49 20.2681 13.4272 20.9586 12.6398C21.649 11.8524 22.6343 11.4587 23.9143 11.4587C25.1943 11.4587 26.1796 11.8524 26.87 12.6398C27.5605 13.4272 27.9057 14.49 27.9057 15.8283C27.9057 17.1665 27.5605 18.2293 26.87 19.0167C26.1796 19.8041 25.1943 20.1978 23.9143 20.1978C22.6343 20.1978 21.649 19.8041 20.9586 19.0167C20.2681 18.2293 19.9229 17.1665 19.9229 15.8283ZM21.7382 15.8283C21.7382 16.798 21.9109 17.5408 22.2561 18.0567C22.6052 18.5687 23.1579 18.8247 23.9143 18.8247C24.6707 18.8247 25.2215 18.5687 25.5667 18.0567C25.9158 17.5408 26.0904 16.798 26.0904 15.8283C26.0904 14.8585 25.9158 14.1177 25.5667 13.6056C25.2215 13.0898 24.6707 12.8318 23.9143 12.8318C23.1579 12.8318 22.6052 13.0898 22.2561 13.6056C21.9109 14.1177 21.7382 14.8585 21.7382 15.8283Z" fill="#161616"/>
</svg>
