<svg width="20" height="21" viewBox="0 0 20 21" fill="none" xmlns="http://www.w3.org/2000/svg">
<g id="Icon Library">
<path id="Vector" d="M16.7004 13.9913L14.3438 13.7222C13.7778 13.6573 13.2211 13.8521 12.8222 14.251L11.115 15.9582C8.48935 14.6222 6.33686 12.479 5.00083 9.844L6.71726 8.12758C7.11621 7.72862 7.31105 7.17194 7.2461 6.60599L6.97704 4.26794C6.86571 3.33086 6.07708 2.62573 5.13072 2.62573H3.52563C2.47722 2.62573 1.60509 3.49786 1.67003 4.54628C2.16177 12.4697 8.49863 18.7973 16.4128 19.289C17.4612 19.3539 18.3333 18.4818 18.3333 17.4334V15.8283C18.3426 14.8912 17.6374 14.1026 16.7004 13.9913Z" fill="#393939"/>
</g>
</svg>
