<svg width="20" height="21" viewBox="0 0 20 21" fill="none" xmlns="http://www.w3.org/2000/svg">
<g id="Icon Library">
<g id="Vector">
<path fill-rule="evenodd" clip-rule="evenodd" d="M15 6.79224C15 9.55366 12.7614 11.7922 9.99996 11.7922C7.23854 11.7922 4.99996 9.55366 4.99996 6.79224C4.99996 4.03081 7.23854 1.79224 9.99996 1.79224C12.7614 1.79224 15 4.03081 15 6.79224ZM13.3333 6.79224C13.3333 8.63319 11.8409 10.1256 9.99996 10.1256C8.15901 10.1256 6.66663 8.63319 6.66663 6.79224C6.66663 4.95129 8.15901 3.4589 9.99996 3.4589C11.8409 3.4589 13.3333 4.95129 13.3333 6.79224Z" fill="#393939"/>
<path fill-rule="evenodd" clip-rule="evenodd" d="M10 12.6256C7.55408 12.6256 5.79054 13.1329 4.5255 13.8937C3.2554 14.6575 2.54202 15.6443 2.14807 16.5073C1.816 17.2348 1.96714 17.9762 2.40833 18.5044C2.82889 19.0079 3.48279 19.2922 4.16667 19.2922H15.8333C16.5172 19.2922 17.1711 19.0079 17.5916 18.5044C18.0328 17.9762 18.184 17.2349 17.8519 16.5074C17.458 15.6443 16.7446 14.6575 15.4745 13.8937C14.2095 13.1329 12.446 12.6256 10 12.6256ZM3.66425 17.1994C3.93771 16.6003 4.44004 15.8899 5.38442 15.322C6.33384 14.751 7.78352 14.2922 10 14.2922C12.2165 14.2922 13.6662 14.751 14.6156 15.322C15.56 15.8899 16.0623 16.6003 16.3357 17.1994C16.368 17.2702 16.3666 17.3127 16.3634 17.3344C16.3597 17.3592 16.3475 17.394 16.3125 17.4359C16.2374 17.5259 16.0699 17.6256 15.8333 17.6256H4.16667C3.93006 17.6256 3.76259 17.5259 3.68746 17.4359C3.65248 17.394 3.64031 17.3592 3.63661 17.3344C3.63337 17.3127 3.63196 17.2701 3.66425 17.1994Z" fill="#393939"/>
</g>
</g>
</svg>
